<?xml version="1.0" encoding="utf-8"?>
<!-- Generator: Adobe Illustrator 26.0.3, SVG Export Plug-In . SVG Version: 6.00 Build 0)  -->
<svg version="1.1" id="Layer_1" xmlns="http://www.w3.org/2000/svg" xmlns:xlink="http://www.w3.org/1999/xlink" x="0px" y="0px" viewBox="0 0 512 512" style="enable-background:new 0 0 512 512;" xml:space="preserve">
	<style type="text/css">
	.st0{fill:#4285F4;}
	.st1{fill:#34A853;}
	.st2{fill:#EA4335;}
	.st3{fill:#FBBC05;}
	.st4{clip-path:url(#SVGID_00000065075797681458407230000003655363576788978591_);fill:#FA7B17;}
	.st5{clip-path:url(#SVGID_00000003819221516733726790000000488190986300590729_);fill:#00832D;}
	.st6{clip-path:url(#SVGID_00000163776179075469840430000008708577141560367294_);fill:#34A853;}
	.st7{fill:#1967D2;}
</style>
	<g>
		<g>
			<path class="st0" d="M39.28,322.17c11.54,32.22,47.25,49.41,81.29,39.14l0.5-0.14c10.38-2.84,34.47-12.49,33.88-40.6l-0.01-0.25
			l0-0.25c0.03-7.52-1.09-13.84-3.24-18.27c-9.51-19.55-33.32-27.57-58.52-36.06c-4.94-1.66-10.05-3.39-14.99-5.19l-0.22-0.08
			c-14.32-5.42-27.7-12.39-37.73-19.65c-14.86-10.1-24.68-25.94-27.68-44.66c-3.11-19.43,1.72-39.1,13.25-54.04
			c12.26-16.68,31.61-28.2,54.55-32.45c21.58-4,44.02-0.91,61.56,8.48c16.57,8.87,29.35,21.94,37.97,38.85
			c5.08,9.96,1.12,22.14-8.83,27.22c-9.96,5.08-22.14,1.12-27.22-8.83c-4.87-9.54-11.74-16.59-21.01-21.56
			c-18.47-9.89-50.66-6.63-64.49,12.37l-0.41,0.54c-4.72,6.05-6.74,14.66-5.41,23.02c0.71,4.43,3.03,12.61,10.6,17.69l0.67,0.47
			c7.08,5.17,17.42,10.52,28.38,14.67c4.43,1.61,9.05,3.17,13.93,4.81c28.99,9.76,65.07,21.92,82,56.72
			c4.88,10.04,7.34,22.1,7.32,35.86c0.7,38.47-23.56,69.15-63.4,80.16c-10.47,3.13-21.05,4.63-31.43,4.63
			c-43.78,0-84.21-26.56-99.39-68.94L39.28,322.17z" />
		</g>
		<rect x="236.15" y="127.48" class="st1" width="40.47" height="256.29" />
		<path class="st2" d="M275.94,231.82h74c0.3,0,0.59,0,0.88,0.01l0-0.01c38.27-0.3,70.29,23.52,81.69,60.81
		c11.49,37.59-2.35,77.09-34.44,98.3c-13.13,8.68-28.4,13.08-45.39,13.08h-96.3c-11.17,0-20.23-9.06-20.23-20.23
		c0-11.17,9.06-20.23,20.23-20.23h96.3c8.91,0,16.68-2.14,23.07-6.37c20.98-13.87,22.84-37.06,18.05-52.71
		c-4.77-15.59-18.34-32.17-42.15-32.17c-0.16,0-0.31,0-0.47,0l-16.17,0.15l-0.04-0.15c-26.98,0-59.04,0-59.04,0V231.82z" />
		<path class="st3" d="M256.38,107.25h90c16.78,0,31.7,4.31,44.34,12.8c25,16.89,40.3,45.53,39.98,74.78
		c-0.29,26.38-13.07,49.64-35.07,63.8c-14.46,9.38-36.55,13.66-50.93,13.66h-68.76v-40.47h68.76c10.24,0,23.74-3.79,28.97-7.18
		c14.23-9.16,16.48-22.89,16.57-30.26c0.17-15.81-8.31-31.43-22.13-40.77c-5.81-3.9-13.13-5.9-21.73-5.9h-90V107.25z" />
		<g>
			<circle class="st0" cx="487.05" cy="370.96" r="24.95" />
		</g>
		<g>
			<defs>
				<path id="SVGID_1_" d="M275.94,231.82h68.76c10.24,0,23.74-3.79,28.97-7.18c14.23-9.16,16.48-22.89,16.57-30.26
				c0.17-15.81-8.31-31.43-22.13-40.77c-5.81-3.9-13.13-5.9-21.73-5.9h-90c-11.17,0-20.23-9.06-20.23-20.23s9.06-20.23,20.23-20.23
				h90c16.78,0,31.7,4.31,44.34,12.8c25,16.89,40.3,45.53,39.98,74.78c-0.29,26.38-13.07,49.64-35.07,63.8
				c-14.46,9.38-36.55,13.66-50.93,13.66h-68.76V231.82z" />
			</defs>
			<clipPath id="SVGID_00000065076144131520470870000004267357868904725923_">
				<use xlink:href="#SVGID_1_" style="overflow:visible;" />
			</clipPath>
			<path style="clip-path:url(#SVGID_00000065076144131520470870000004267357868904725923_);fill:#FA7B17;" d="M352.68,404.01h-96.3
			c-11.17,0-20.23-9.06-20.23-20.23c0-11.17,9.06-20.23,20.23-20.23h96.3c8.91,0,16.68-2.14,23.07-6.37
			c20.98-13.87,22.84-37.06,18.05-52.71c-4.77-15.59-18.34-32.17-42.15-32.17c-0.16,0-0.31,0-0.47,0l-16.17,0.15l-0.04-0.15
			c-26.98,0-78.6,0-78.6,0c-11.17,0-20.23-9.06-20.23-20.23c0-11.17,9.06-20.23,20.23-20.23h93.55c0.3,0,0.59,0,0.88,0.01l0-0.01
			c38.27-0.3,70.29,23.52,81.69,60.81c11.49,37.59-2.35,77.09-34.44,98.3C384.94,399.61,369.66,404.01,352.68,404.01z" />
		</g>
		<g>
			<defs>
				<path id="SVGID_00000147178471787045755540000009136616099099951499_" d="M346.38,147.71h-90c-11.17,0-20.23-9.06-20.23-20.23
				s9.06-20.23,20.23-20.23h90" />
			</defs>
			<clipPath id="SVGID_00000059290276289561541410000005987120952865215158_">
				<use xlink:href="#SVGID_00000147178471787045755540000009136616099099951499_" style="overflow:visible;" />
			</clipPath>
			<path style="clip-path:url(#SVGID_00000059290276289561541410000005987120952865215158_);fill:#00832D;" d="M256.38,404.01
			c-11.17,0-20.23-9.06-20.23-20.23V127.48c0-11.17,9.06-20.23,20.23-20.23c11.17,0,20.23,9.06,20.23,20.23v256.29
			C276.61,394.95,267.56,404.01,256.38,404.01z" />
		</g>
		<g>
			<defs>
				<path id="SVGID_00000150819159136332623830000001065051739484357539_" d="M344.7,272.29h-68.76v-40.47h68.76" />
			</defs>
			<clipPath id="SVGID_00000028287493833487246200000005453600015749726125_">
				<use xlink:href="#SVGID_00000150819159136332623830000001065051739484357539_" style="overflow:visible;" />
			</clipPath>
			<path style="clip-path:url(#SVGID_00000028287493833487246200000005453600015749726125_);fill:#34A853;" d="M256.38,404.01
			c-11.17,0-20.23-9.06-20.23-20.23V127.48c0-11.17,9.06-20.23,20.23-20.23c11.17,0,20.23,9.06,20.23,20.23v256.29
			C276.61,394.95,267.56,404.01,256.38,404.01z" />
		</g>
		<circle class="st7" cx="20.23" cy="328.99" r="20.23" />
	</g>
</svg>